<svg id="SvgjsSvg1035" xmlns="http://www.w3.org/2000/svg" version="1.1" xmlns:xlink="http://www.w3.org/1999/xlink" xmlns:svgjs="http://svgjs.com/svgjs" width="16" height="16" viewBox="0 0 16 16"><title>icon</title><desc>Created with Avocode.</desc><defs id="SvgjsDefs1036"></defs><path id="SvgjsPath1037" d="M869.428 3809L869.428 3803.34C869.428 3801.9700000000003 868.875 3801.1800000000003 868.008 3801.1800000000003C867.254 3801.1800000000003 866.543 3801.5600000000004 866.169 3802.1600000000003C866.048 3802.36 865.965 3802.8 865.965 3803.1000000000004L865.965 3808.9700000000003L863 3809.0000000000005L863 3798.0000000000005L865.595 3798.1800000000003L865.744 3800.0600000000004L865.808 3800.0600000000004C866.231 3799.3 867.274 3798.3500000000004 869.0169999999999 3798.3500000000004C871.1389999999999 3798.3500000000004 873.007 3799.7900000000004 873.007 3802.9200000000005L873.007 3808.9700000000007ZM858 3798L861 3798L861 3809L858 3808.97ZM861.454 3795.64C861.4319999999999 3794.71 860.795 3793.99 859.756 3793.99C858.7149999999999 3793.99 858.034 3794.7099999999996 858.034 3795.64C858.034 3796.56 858.694 3797.2999999999997 859.711 3797.2999999999997C860.795 3797.2999999999997 861.4540000000001 3796.56 861.4540000000001 3795.64Z " fill="#ffffff" fill-opacity="1" transform="matrix(1,0,0,1,-858,-3793)"></path></svg>