<svg id="SvgjsSvg1038" xmlns="http://www.w3.org/2000/svg" version="1.1" xmlns:xlink="http://www.w3.org/1999/xlink" xmlns:svgjs="http://svgjs.com/svgjs" width="20" height="22" viewBox="0 0 20 22"><title>icon</title><desc>Created with Avocode.</desc><defs id="SvgjsDefs1039"></defs><path id="SvgjsPath1040" d="M917.693 3801.36C917.473 3800.4 916.689 3799.6800000000003 915.746 3799.58C913.513 3799.33 911.2529999999999 3799.33 909.0029999999999 3799.33C906.752 3799.33 904.492 3799.33 902.2589999999999 3799.58C901.3159999999999 3799.68 900.5329999999999 3800.4 900.3129999999999 3801.36C899.9989999999999 3802.7400000000002 899.9949999999999 3804.2400000000002 899.9949999999999 3805.6600000000003C899.9949999999999 3807.0800000000004 899.9949999999999 3808.5800000000004 900.3089999999999 3809.9600000000005C900.5289999999999 3810.9300000000003 901.3119999999999 3811.6400000000003 902.2549999999999 3811.7500000000005C904.4879999999998 3812.0000000000005 906.7479999999999 3812.0000000000005 908.9989999999999 3812.0000000000005C911.2489999999999 3812.0000000000005 913.5089999999999 3812.0000000000005 915.7429999999999 3811.7500000000005C916.685 3811.6400000000003 917.4689999999999 3810.9300000000003 917.689 3809.9600000000005C918.0029999999999 3808.5800000000004 918.005 3807.0800000000004 918.005 3805.6600000000003C918.005 3804.2400000000002 918.006 3802.7400000000002 917.693 3801.36ZM902.94403 3790.13L902.897 3790.13C903.154 3790.9 903.422 3791.6600000000003 903.6790000000001 3792.4300000000003C904.07 3793.57 904.3140000000001 3794.4400000000005 904.4240000000001 3795.03L904.4240000000001 3798.36L905.6440000000001 3798.36L905.6440000000001 3798.2200000000003L905.6470000000002 3798.2200000000003L905.6470000000002 3795.0199900000002L907.1120000000002 3790.13L907.0750000000002 3790.13L907.1140000000001 3790L905.8810000000002 3790L905.0490000000002 3793.23L904.1840000000002 3790L902.9000000000002 3790C902.9146400000002 3790.0433 902.9293200000002 3790.08664 902.9440300000002 3790.13ZM905.132 3802.6L903.829 3802.6L903.829 3809.6L902.6179999999999 3809.6L902.6179999999999 3802.6L901.338 3802.6L901.338 3801.46L905.132 3801.46ZM912.555 3807.78C912.555 3808.34 912.5179999999999 3808.7400000000002 912.4449999999999 3809C912.3 3809.45 912.0089999999999 3809.68 911.5749999999999 3809.68C911.188 3809.68 910.814 3809.46 910.4509999999999 3809.0099999999998L910.4509999999999 3809.6L909.3619999999999 3809.6L909.3619999999999 3801.46L910.4509999999999 3801.46L910.4509999999999 3804.12C910.8019999999999 3803.68 911.175 3803.46 911.5749999999999 3803.46C912.0089999999999 3803.46 912.3 3803.69 912.4449999999999 3804.14C912.5179999999999 3804.39 912.555 3804.79 912.555 3805.3599999999997ZM907.12401 3794.07898C907.12267 3794.12823 907.122 3794.1785699999996 907.122 3794.2299999999996L907.122 3796.3699999999994C907.122 3797.0299999999993 907.232 3797.5099999999993 907.466 3797.8199999999993C907.77 3798.229999999999 908.197 3798.439999999999 908.745 3798.439999999999C909.297 3798.439999999999 909.725 3798.229999999999 910.029 3797.8199999999993C910.24857 3797.5253399999992 910.35882 3797.0770899999993 910.36919 3796.4666699999993C910.3724 3796.3935599999995 910.374 3796.3180099999995 910.374 3796.2399999999993L910.374 3794.0899999999992C910.374 3793.439999999999 910.263 3792.959999999999 910.033 3792.649999999999C909.7280000000001 3792.229999999999 909.301 3792.019999999999 908.749 3792.019999999999C908.202 3792.019999999999 907.773 3792.229999999999 907.469 3792.649999999999C907.2363200000001 3792.958239999999 907.12526 3793.434569999999 907.12401 3794.0789799999993ZM916.662 3806.77L914.486 3806.77L914.486 3807.84C914.486 3808.4 914.668 3808.6800000000003 915.042 3808.6800000000003C915.3090000000001 3808.6800000000003 915.466 3808.5400000000004 915.528 3808.2400000000002C915.538 3808.1800000000003 915.552 3807.94 915.552 3807.5000000000005L916.662 3807.5000000000005L916.662 3807.6600000000003C916.662 3808.01 916.649 3808.2500000000005 916.639 3808.3700000000003C916.602 3808.61 916.517 3808.8300000000004 916.385 3809.0200000000004C916.084 3809.4600000000005 915.637 3809.6800000000003 915.069 3809.6800000000003C914.4989999999999 3809.6800000000003 914.0659999999999 3809.4700000000003 913.751 3809.0600000000004C913.521 3808.76 913.4019999999999 3808.28 913.4019999999999 3807.6300000000006L913.4019999999999 3805.5100000000007C913.4019999999999 3804.8600000000006 913.507 3804.390000000001 913.7379999999999 3804.080000000001C914.053 3803.6600000000008 914.486 3803.460000000001 915.0419999999999 3803.460000000001C915.588 3803.460000000001 916.021 3803.6600000000008 916.3259999999999 3804.080000000001C916.5529999999999 3804.390000000001 916.6619999999999 3804.860000000001 916.6619999999999 3805.5100000000007ZM913.338 3792.23L913.338 3796.78431C913.09609 3797.13139 912.8651 3797.3 912.6469999999999 3797.3C912.4989999999999 3797.3 912.4129999999999 3797.21 912.3889999999999 3797.04C912.3759999999999 3797 912.3759999999999 3796.87 912.3759999999999 3796.61L912.3759999999999 3792.1L911.2789999999999 3792.1L911.2789999999999 3792.23L911.2759999999998 3792.23L911.2759999999998 3797.08C911.2759999999998 3797.5099999999998 911.3129999999999 3797.7999999999997 911.3739999999998 3797.99C911.4829999999998 3798.2999999999997 911.7269999999997 3798.4399999999996 912.0819999999998 3798.4399999999996C912.4829999999997 3798.4399999999996 912.8999999999997 3798.2 913.3379999999997 3797.6899999999996L913.3379999999997 3798.3599999999997L914.4369999999998 3798.3599999999997L914.4369999999998 3798.22L914.4419999999998 3798.22L914.4419999999998 3792.1L913.3409999999998 3792.1L913.3409999999998 3792.23ZM908.421 3809.6L907.331 3809.6L907.331 3808.94C906.899 3809.44 906.488 3809.68 906.088 3809.68C905.737 3809.68 905.495 3809.54 905.386 3809.23C905.327 3809.05 905.2909999999999 3808.76 905.2909999999999 3808.33L905.2909999999999 3803.5299999999997L906.3779999999999 3803.5299999999997L906.3779999999999 3807.9999999999995C906.3779999999999 3808.2499999999995 906.3779999999999 3808.3899999999994 906.3889999999999 3808.4199999999996C906.4149999999998 3808.5999999999995 906.4979999999999 3808.68 906.6429999999999 3808.68C906.862 3808.68 907.0899999999999 3808.5099999999998 907.3309999999999 3808.1699999999996L907.3309999999999 3803.5299999999997L908.4209999999999 3803.5299999999997ZM908.224 3793.88441C908.24819 3793.3988400000003 908.4189700000001 3793.1600000000003 908.745 3793.1600000000003C909.1 3793.1600000000003 909.271 3793.4400000000005 909.271 3794.01L909.271 3796.5759000000003C909.24687 3797.0612600000004 909.0767999999999 3797.3 908.7489999999999 3797.3C908.3939999999999 3797.3 908.2239999999999 3797.02 908.2239999999999 3796.4500000000003ZM910.993 3804.45C910.8140000000001 3804.45 910.633 3804.5299999999997 910.451 3804.71L910.451 3808.41C910.633 3808.6 910.8140000000001 3808.68 910.993 3808.68C911.307 3808.68 911.4670000000001 3808.41 911.4670000000001 3807.8599999999997L911.4670000000001 3805.2799999999997C911.4670000000001 3804.7299999999996 911.3070000000001 3804.45 910.993 3804.45ZM915.032 3804.45C914.668 3804.45 914.486 3804.73 914.486 3805.29L914.486 3805.85L915.574 3805.85L915.574 3805.29C915.574 3804.73 915.3919999999999 3804.45 915.0319999999999 3804.45Z " fill="#ffffff" fill-opacity="1" transform="matrix(1,0,0,1,-899,-3790)"></path></svg>