<svg id="SvgjsSvg1020" xmlns="http://www.w3.org/2000/svg" version="1.1" xmlns:xlink="http://www.w3.org/1999/xlink" xmlns:svgjs="http://svgjs.com/svgjs" width="26" height="26" viewBox="0 0 26 26"><title>dot</title><desc>Created with Avocode.</desc><defs id="SvgjsDefs1021"><clipPath id="SvgjsClipPath1025"><path id="SvgjsPath1024" d="M718 931L718 905L744 905L744 931ZM723 918C723 922.418 726.582 926 731 926C735.418 926 739 922.418 739 918C739 913.582 735.418 910 731 910C726.582 910 723 913.582 723 918Z " fill="#ffffff"></path></clipPath></defs><path id="SvgjsPath1022" d="M731 910C735.418 910 739 913.582 739 918C739 922.418 735.418 926 731 926C726.582 926 723 922.418 723 918C723 913.582 726.582 910 731 910Z " fill="#f4f4f4" fill-opacity="1" transform="matrix(1,0,0,1,-718,-905)"></path><path id="SvgjsPath1023" d="M731 910C735.418 910 739 913.582 739 918C739 922.418 735.418 926 731 926C726.582 926 723 922.418 723 918C723 913.582 726.582 910 731 910Z " fill-opacity="0" fill="#ffffff" stroke-dasharray="0" stroke-linejoin="round" stroke-linecap="round" stroke-opacity="0.15" stroke="#ffffff" stroke-miterlimit="50" stroke-width="10" clip-path="url(&quot;#SvgjsClipPath1025&quot;)" transform="matrix(1,0,0,1,-718,-905)"></path></svg>