<svg id="SvgjsSvg1008" xmlns="http://www.w3.org/2000/svg" version="1.1" xmlns:xlink="http://www.w3.org/1999/xlink" xmlns:svgjs="http://svgjs.com/svgjs" width="23" height="25" viewBox="0 0 23 25"><title>icon</title><desc>Created with Avocode.</desc><defs id="SvgjsDefs1009"></defs><path id="SvgjsPath1010" d="M793.453 247.501L807.322 247.501L807.322 255.977C807.322 257.253 806.288 258.288 805.011 258.288L804.24 258.288L804.24 261.37C804.24 262.217 803.547 262.911 802.699 262.911C801.851 262.911 801.1579999999999 262.217 801.1579999999999 261.37L801.1579999999999 258.288L799.6169999999998 258.288L799.6169999999998 261.37C799.6169999999998 262.217 798.9239999999999 262.911 798.0759999999998 262.911C797.2279999999998 262.911 796.5349999999997 262.217 796.5349999999997 261.37L796.5349999999997 258.288L795.7649999999998 258.288C794.4879999999997 258.288 793.4529999999997 257.253 793.4529999999997 255.977ZM807.279 245.96L793.496 245.96C793.77 243.481 795.35 241.39700000000002 797.5319999999999 240.41L796.5569999999999 238.536C796.507 238.442 796.545 238.325 796.6379999999999 238.276C796.733 238.227 796.8499999999999 238.264 796.8989999999999 238.359L797.8889999999999 240.26000000000002C798.6639999999999 239.961 799.507 239.79600000000002 800.3879999999999 239.79600000000002C801.2689999999999 239.79600000000002 802.112 239.961 802.887 240.26000000000002L803.877 238.359C803.9259999999999 238.264 804.0419999999999 238.227 804.137 238.276C804.2299999999999 238.32500000000002 804.2679999999999 238.442 804.218 238.536L803.2429999999999 240.41C805.425 241.397 807.006 243.481 807.2789999999999 245.96ZM811.175 247.501L811.175 253.665C811.175 254.512 810.482 255.206 809.6339999999999 255.206C808.786 255.206 808.0929999999998 254.512 808.0929999999998 253.665L808.0929999999998 247.501C808.0929999999998 246.653 808.7859999999998 245.96 809.6339999999999 245.96C810.4819999999999 245.96 811.175 246.65300000000002 811.175 247.501ZM792.683 247.501L792.683 253.665C792.683 254.512 791.99 255.206 791.1419999999999 255.206C790.294 255.206 789.6009999999999 254.512 789.6009999999999 253.665L789.6009999999999 247.501C789.6009999999999 246.653 790.2939999999999 245.96 791.1419999999999 245.96C791.9899999999999 245.96 792.683 246.65300000000002 792.683 247.501ZM798.423 243.648C798.423 243.031 797.923 242.531 797.306 242.531C796.6890000000001 242.531 796.188 243.031 796.188 243.648C796.188 244.265 796.689 244.766 797.306 244.766C797.923 244.766 798.423 244.265 798.423 243.648ZM804.587 243.648C804.587 243.031 804.087 242.531 803.47 242.531C802.8530000000001 242.531 802.352 243.031 802.352 243.648C802.352 244.265 802.853 244.766 803.47 244.766C804.087 244.766 804.587 244.265 804.587 243.648Z " fill="#f4f4f4" fill-opacity="1" transform="matrix(1,0,0,1,-789,-238)"></path></svg>