<svg id="SvgjsSvg1029" xmlns="http://www.w3.org/2000/svg" version="1.1" xmlns:xlink="http://www.w3.org/1999/xlink" xmlns:svgjs="http://svgjs.com/svgjs" width="20" height="20" viewBox="0 0 20 20"><title>icon</title><desc>Created with Avocode.</desc><defs id="SvgjsDefs1030"></defs><path id="SvgjsPath1031" d="M787 3802C787 3803.81 786.553 3805.49 785.659 3807.02C784.765 3808.55 783.552 3809.7599999999998 782.02 3810.66C780.4879999999999 3811.5499999999997 778.814 3812 777 3812C776.037 3812 775.09 3811.86 774.162 3811.58C774.674 3810.7799999999997 775.0120000000001 3810.06 775.177 3809.45C775.255 3809.1499999999996 775.49 3808.24 775.88 3806.7C776.054 3807.04 776.371 3807.33 776.831 3807.58C777.291 3807.83 777.7860000000001 3807.95 778.315 3807.95C779.365 3807.95 780.3030000000001 3807.6499999999996 781.128 3807.06C781.952 3806.46 782.59 3805.65 783.042 3804.6C783.493 3803.56 783.719 3802.39 783.719 3801.0899999999997C783.719 3800.1 783.461 3799.1699999999996 782.9440000000001 3798.2999999999997C782.4280000000001 3797.43 781.6790000000001 3796.7299999999996 780.6980000000001 3796.18C779.7170000000001 3795.6299999999997 778.6100000000001 3795.3599999999997 777.378 3795.3599999999997C776.466 3795.3599999999997 775.6160000000001 3795.49 774.826 3795.74C774.0360000000001 3795.99 773.365 3796.3199999999997 772.8140000000001 3796.74C772.2620000000001 3797.16 771.7890000000001 3797.64 771.3950000000001 3798.18C771.0000000000001 3798.72 770.7090000000001 3799.2799999999997 770.522 3799.87C770.336 3800.45 770.2420000000001 3801.0299999999997 770.2420000000001 3801.6099999999997C770.2420000000001 3802.5099999999998 770.416 3803.3099999999995 770.763 3803.99C771.11 3804.68 771.618 3805.16 772.287 3805.4399999999996C772.547 3805.5399999999995 772.712 3805.45 772.7810000000001 3805.1799999999994C772.7990000000001 3805.1199999999994 772.8340000000001 3804.9799999999996 772.8850000000001 3804.7699999999995C772.9380000000001 3804.5599999999995 772.9720000000001 3804.4399999999996 772.9900000000001 3804.3799999999997C773.0420000000001 3804.18 772.9940000000001 3803.9999999999995 772.8460000000001 3803.8199999999997C772.4040000000001 3803.2899999999995 772.1820000000001 3802.64 772.1820000000001 3801.8599999999997C772.1820000000001 3800.5499999999997 772.6360000000001 3799.4199999999996 773.5430000000001 3798.4799999999996C774.4500000000002 3797.5399999999995 775.6370000000002 3797.0599999999995 777.1040000000002 3797.0599999999995C778.4150000000002 3797.0599999999995 779.4370000000001 3797.4199999999996 780.1710000000002 3798.1299999999997C780.9040000000001 3798.8399999999997 781.2710000000002 3799.7699999999995 781.2710000000002 3800.91C781.2710000000002 3802.3799999999997 780.9730000000002 3803.64 780.3790000000001 3804.67C779.7840000000001 3805.7000000000003 779.0230000000001 3806.2200000000003 778.0940000000002 3806.2200000000003C777.5640000000002 3806.2200000000003 777.1390000000001 3806.03 776.8180000000002 3805.65C776.4970000000002 3805.28 776.3970000000002 3804.82 776.5180000000003 3804.29C776.5880000000003 3803.99 776.7030000000002 3803.58 776.8630000000003 3803.07C777.0240000000002 3802.57 777.1540000000003 3802.1200000000003 777.2540000000002 3801.73C777.3540000000003 3801.35 777.4040000000002 3801.02 777.4040000000002 3800.75C777.4040000000002 3800.32 777.2870000000003 3799.96 777.0520000000002 3799.67C776.8180000000002 3799.38 776.4840000000003 3799.2400000000002 776.0490000000002 3799.2400000000002C775.5110000000002 3799.2400000000002 775.0560000000002 3799.4900000000002 774.6820000000002 3799.98C774.3090000000002 3800.48 774.1230000000003 3801.09 774.1230000000003 3801.83C774.1230000000003 3802.46 774.2310000000002 3802.99 774.4480000000003 3803.42L773.1590000000003 3808.86C773.0110000000003 3809.4700000000003 772.9550000000004 3810.2400000000002 772.9900000000004 3811.17C771.2010000000004 3810.38 769.7560000000003 3809.16 768.6540000000003 3807.51C767.5510000000004 3805.86 767.0000000000003 3804.0200000000004 767.0000000000003 3802C767.0000000000003 3800.19 767.4470000000003 3798.51 768.3410000000003 3796.98C769.2350000000004 3795.45 770.4490000000003 3794.2400000000002 771.9810000000003 3793.34C773.5120000000003 3792.4500000000003 775.1860000000004 3792 777.0000000000003 3792C778.8140000000003 3792 780.4880000000004 3792.45 782.0200000000003 3793.34C783.5520000000004 3794.2400000000002 784.7650000000003 3795.4500000000003 785.6590000000003 3796.98C786.5530000000003 3798.51 787.0000000000003 3800.19 787.0000000000003 3802Z " fill="#ffffff" fill-opacity="1" transform="matrix(1,0,0,1,-767,-3792)"></path></svg>