<svg id="SvgjsSvg1032" xmlns="http://www.w3.org/2000/svg" version="1.1" xmlns:xlink="http://www.w3.org/1999/xlink" xmlns:svgjs="http://svgjs.com/svgjs" width="19" height="18" viewBox="0 0 19 18"><title>icon</title><desc>Created with Avocode.</desc><defs id="SvgjsDefs1033"></defs><path id="SvgjsPath1034" d="M819.761 3794L824.4879999999999 3794L823.0279999999999 3794.85L821.5679999999999 3794.85C822.0789999999998 3795.18 822.4759999999999 3795.63 822.7569999999998 3796.22C823.0389999999999 3796.7999999999997 823.1789999999999 3797.41 823.1789999999999 3798.0499999999997C823.1789999999999 3798.58 823.0959999999999 3799.0499999999997 822.9299999999998 3799.47C822.7639999999998 3799.8799999999997 822.5629999999999 3800.22 822.3249999999998 3800.47C822.0869999999998 3800.72 821.8489999999998 3800.95 821.6109999999998 3801.1699999999996C821.3729999999997 3801.3799999999997 821.1709999999997 3801.5999999999995 821.0049999999998 3801.8299999999995C820.8389999999997 3802.0499999999993 820.7559999999997 3802.2999999999993 820.7559999999997 3802.5599999999995C820.7559999999997 3802.7399999999993 820.8149999999997 3802.9299999999994 820.9349999999997 3803.1099999999997C821.0539999999997 3803.2899999999995 821.2079999999997 3803.4599999999996 821.3999999999997 3803.6299999999997C821.5909999999998 3803.7899999999995 821.8019999999998 3803.97 822.0319999999997 3804.1499999999996C822.2629999999997 3804.3299999999995 822.4939999999997 3804.5299999999997 822.7249999999997 3804.7499999999995C822.9559999999997 3804.9699999999993 823.1659999999997 3805.1999999999994 823.3579999999997 3805.4599999999996C823.5489999999998 3805.72 823.7039999999997 3806.0199999999995 823.8229999999998 3806.3799999999997C823.9419999999998 3806.74 824.0009999999997 3807.1199999999994 824.0009999999997 3807.5299999999997C824.0009999999997 3808.6899999999996 823.4959999999998 3809.7 822.4869999999997 3810.58C821.3909999999997 3811.5299999999997 819.8759999999997 3812 817.9439999999997 3812C817.5179999999997 3812 817.0869999999998 3811.96 816.6509999999997 3811.89C816.2149999999997 3811.8199999999997 815.7749999999997 3811.7 815.3309999999997 3811.5299999999997C814.8879999999997 3811.3599999999997 814.4959999999996 3811.1499999999996 814.1569999999997 3810.8999999999996C813.8189999999997 3810.6499999999996 813.5409999999997 3810.3299999999995 813.3249999999997 3809.9399999999996C813.1079999999997 3809.5499999999997 812.9999999999997 3809.1099999999997 812.9999999999997 3808.6299999999997C812.9999999999997 3808.1899999999996 813.1339999999997 3807.7 813.3999999999996 3807.16C813.6309999999996 3806.7 813.9769999999996 3806.2999999999997 814.4389999999996 3805.97C814.8999999999996 3805.6299999999997 815.4229999999997 3805.3799999999997 816.0069999999996 3805.2C816.5919999999996 3805.02 817.1499999999996 3804.8999999999996 817.6839999999996 3804.81C818.2179999999996 3804.73 818.7589999999997 3804.68 819.3059999999996 3804.67C818.8449999999996 3804.07 818.6139999999996 3803.53 818.6139999999996 3803.05C818.6139999999996 3802.9700000000003 818.6219999999996 3802.88 818.6359999999996 3802.8C818.6499999999996 3802.7200000000003 818.6679999999997 3802.65 818.6899999999996 3802.59C818.7119999999996 3802.53 818.7399999999996 3802.4500000000003 818.7759999999996 3802.36C818.8129999999996 3802.26 818.8379999999996 3802.1800000000003 818.8519999999996 3802.1200000000003C818.5639999999996 3802.1600000000003 818.3109999999996 3802.1800000000003 818.0949999999997 3802.1800000000003C817.0209999999997 3802.1800000000003 816.0989999999997 3801.82 815.3309999999997 3801.1200000000003C814.5629999999996 3800.4100000000003 814.1789999999996 3799.5200000000004 814.1789999999996 3798.4600000000005C814.1789999999996 3797.4500000000003 814.5219999999996 3796.5400000000004 815.2069999999997 3795.7500000000005C815.8919999999996 3794.9500000000003 816.7359999999996 3794.4400000000005 817.7379999999996 3794.2200000000003C818.4159999999996 3794.07 819.0899999999996 3794.0000000000005 819.7609999999996 3794.0000000000005ZM822.476 3808.46C822.476 3808.31 822.46 3808.17 822.427 3808.02C822.395 3807.88 822.361 3807.75 822.325 3807.64C822.288 3807.52 822.226 3807.39 822.135 3807.2599999999998C822.045 3807.1299999999997 821.9689999999999 3807.02 821.908 3806.93C821.847 3806.8399999999997 821.751 3806.74 821.6220000000001 3806.6099999999997C821.4920000000001 3806.49 821.393 3806.3999999999996 821.3240000000001 3806.3399999999997C821.2550000000001 3806.2799999999997 821.1400000000001 3806.18 820.9780000000001 3806.0599999999995C820.815 3805.9399999999996 820.7040000000001 3805.8599999999997 820.642 3805.8099999999995C820.581 3805.7699999999995 820.4620000000001 3805.6899999999996 820.2860000000001 3805.5599999999995C820.109 3805.4399999999996 819.999 3805.3699999999994 819.955 3805.3399999999997C819.8330000000001 3805.3199999999997 819.653 3805.3099999999995 819.4150000000001 3805.3099999999995C819.0250000000001 3805.3099999999995 818.643 3805.3399999999997 818.268 3805.3899999999994C817.893 3805.4399999999996 817.504 3805.5299999999993 817.1 3805.6599999999994C816.696 3805.7899999999995 816.3430000000001 3805.9599999999996 816.0400000000001 3806.1599999999994C815.7370000000001 3806.359999999999 815.488 3806.629999999999 815.2930000000001 3806.9699999999993C815.0990000000002 3807.3099999999995 815.0010000000001 3807.689999999999 815.0010000000001 3808.129999999999C815.0010000000001 3808.619999999999 815.1290000000001 3809.059999999999 815.3850000000001 3809.439999999999C815.6410000000001 3809.829999999999 815.9770000000001 3810.129999999999 816.3910000000001 3810.349999999999C816.806 3810.569999999999 817.2410000000001 3810.729999999999 817.695 3810.839999999999C818.149 3810.949999999999 818.6070000000001 3811.009999999999 819.0690000000001 3811.009999999999C819.494 3811.009999999999 819.9000000000001 3810.9599999999987 820.2860000000001 3810.869999999999C820.671 3810.779999999999 821.0340000000001 3810.639999999999 821.373 3810.449999999999C821.7120000000001 3810.259999999999 821.98 3809.989999999999 822.1790000000001 3809.6499999999987C822.3770000000001 3809.3099999999986 822.4760000000001 3808.9199999999987 822.4760000000001 3808.4599999999987ZM821.178 3799.14C821.178 3798.71 821.118 3798.25 821 3797.7599999999998C820.881 3797.27 820.711 3796.7999999999997 820.491 3796.35C820.271 3795.89 819.968 3795.52 819.582 3795.22C819.197 3794.93 818.766 3794.7799999999997 818.29 3794.7799999999997C817.6189999999999 3794.7799999999997 817.0999999999999 3795.0299999999997 816.732 3795.5299999999997C816.3639999999999 3796.0199999999995 816.18 3796.62 816.18 3797.31C816.18 3797.65 816.222 3798.0099999999998 816.305 3798.38C816.3879999999999 3798.76 816.516 3799.13 816.689 3799.51C816.862 3799.88 817.064 3800.2200000000003 817.295 3800.5200000000004C817.525 3800.8200000000006 817.8069999999999 3801.0600000000004 818.1379999999999 3801.2500000000005C818.4699999999999 3801.4400000000005 818.8199999999999 3801.5300000000007 819.1879999999999 3801.5300000000007C819.8869999999998 3801.5300000000007 820.3939999999999 3801.310000000001 820.7079999999999 3800.870000000001C821.0209999999998 3800.440000000001 821.1779999999999 3799.8600000000006 821.1779999999999 3799.140000000001ZM829 3797L829 3794L828 3794L828 3797L825 3797L825 3798L828 3798L828 3801L829 3801L829 3798L832 3798L832 3797Z " fill="#ffffff" fill-opacity="1" transform="matrix(1,0,0,1,-813,-3794)"></path></svg>