<svg id="SvgjsSvg1014" xmlns="http://www.w3.org/2000/svg" version="1.1" xmlns:xlink="http://www.w3.org/1999/xlink" xmlns:svgjs="http://svgjs.com/svgjs" width="32" height="32" viewBox="0 0 32 32"><title>dot</title><desc>Created with Avocode.</desc><defs id="SvgjsDefs1015"><clipPath id="SvgjsClipPath1019"><path id="SvgjsPath1018" d="M858 840L858 808L890 808L890 840ZM866 824C866 828.418 869.582 832 874 832C878.418 832 882 828.418 882 824C882 819.582 878.418 816 874 816C869.582 816 866 819.582 866 824Z " fill="#ffffff"></path></clipPath></defs><path id="SvgjsPath1016" d="M874 816C878.418 816 882 819.582 882 824C882 828.418 878.418 832 874 832C869.582 832 866 828.418 866 824C866 819.582 869.582 816 874 816Z " fill="#e74c3c" fill-opacity="1" transform="matrix(1,0,0,1,-858,-808)"></path><path id="SvgjsPath1017" d="M874 816C878.418 816 882 819.582 882 824C882 828.418 878.418 832 874 832C869.582 832 866 828.418 866 824C866 819.582 869.582 816 874 816Z " fill-opacity="0" fill="#ffffff" stroke-dasharray="0" stroke-linejoin="round" stroke-linecap="round" stroke-opacity="0.5" stroke="#ffffff" stroke-miterlimit="50" stroke-width="16" clip-path="url(&quot;#SvgjsClipPath1019&quot;)" transform="matrix(1,0,0,1,-858,-808)"></path></svg>