<svg id="SvgjsSvg1011" xmlns="http://www.w3.org/2000/svg" version="1.1" xmlns:xlink="http://www.w3.org/1999/xlink" xmlns:svgjs="http://svgjs.com/svgjs" width="21" height="26" viewBox="0 0 21 26"><title>icon</title><desc>Created with Avocode.</desc><defs id="SvgjsDefs1012"></defs><path id="SvgjsPath1013" d="M737.771 249.815C737.74 246.692 740.318 245.194 740.434 245.12C738.9839999999999 243 736.728 242.71 735.925 242.677C734.0039999999999 242.482 732.178 243.807 731.204 243.807C730.232 243.807 728.728 242.70499999999998 727.135 242.73499999999999C725.043 242.765 723.1129999999999 243.951 722.035 245.826C719.861 249.599 721.478 255.189 723.597 258.248C724.6329999999999 259.746 725.8679999999999 261.429 727.49 261.368C729.05 261.307 729.641 260.359 731.529 260.359C733.4159999999999 260.359 733.947 261.368 735.599 261.33799999999997C737.279 261.30699999999996 738.344 259.811 739.3720000000001 258.308C740.561 256.57099999999997 741.051 254.888 741.081 254.802C741.043 254.785 737.804 253.54399999999998 737.7710000000001 249.815ZM731.009 242.396C730.822 240.98 731.52 239.504 732.318 238.581C733.207 237.53799999999998 734.71 236.76299999999998 735.9499999999999 236.714C736.108 238.158 735.5269999999999 239.607 734.6669999999999 240.65C733.805 241.692 732.3929999999999 242.50400000000002 731.0089999999999 242.39600000000002Z " fill="#f4f4f4" fill-opacity="1" transform="matrix(1,0,0,1,-721,-236)"></path></svg>